{
  "title": "Batman V Superman Dawn of Jusitce 2016 Extended Cut Ultimate Edi",
  "uid": 15076660,
  "size": 2129629170,
  "categoryP": "video",
  "categoryS": "movies",
  "magnet": "?xt=urn:btih:2944d38d3b64ad39d21892d2ac0408080d170d88&amp;dn=Batman+V+Superman+Dawn+of+Jusitce+2016+Extended+Cut+Ultimate+Edi&amp;tr=udp%3A%2F%2Ftracker.leechers-paradise.org%3A6969&amp;tr=udp%3A%2F%2Fzer0day.ch%3A1337&amp;tr=udp%3A%2F%2Fopen.demonii.com%3A1337&amp;tr=udp%3A%2F%2Ftracker.coppersurfer.tk%3A6969&amp;tr=udp%3A%2F%2Fexodus.desync.com%3A6969",
  "seeders": 73,
  "leechers": 17,
  "uploader": "makintos13",
  "files": 3,
  "time": 1466832497,
  "description": "screenss:\r\n \nhttps://imgmak.com/Tcg\r\n \nhttps://imgmak.com/Tco\r\n \nhttps://imgmak.com/TcN\r\n \nhttps://imgmak.com/TcQ\r\n \nhttps://imgmak.com/TcS\r\n\r\n \nhttps://imgmak.com/TcZ\r\n \nhttps://imgmak.com/Tcc\r\n \nhttps://imgmak.com/Tcn\r\n \nhttps://imgmak.com/Tcr\r\n \nhttps://imgmak.com/TcB\r\n\r\n\r\n\r\n\r\nDo Not Download its bit jerky. full extended version though NO end Credits, i don't know why i uploaded, may be i was trying to impress my girlfriend   Daddy!\r\n\r\nSource:\nSamples: 2 included\r\n\r\nFormat                      : Matroska\r\nFile size                   : 1.95 GiB\r\nDuration                    : 2h 54mn\r\nOverall bit rate            : 1 601 Kbps\r\n\r\nVideo\r\nID                          : 1\r\nFormat                      : AVC\r\nFormat/Info                 : Advanced Video Codec\r\nFormat profile              :   \r\nFormat settings, CABAC      : Yes\r\nFormat settings, ReFrames   : 3 frames\r\nCodec ID                    : V_MPEG4/ISO/AVC\r\nDuration                    : 2h 54mn\r\nBit rate                    : 1 343 Kbps\r\nWidth                       : 720 pixels\r\nHeight                      : 304 pixels\r\nDisplay aspect ratio        : 2.35:1\r\nFrame rate mode             : Constant\r\nFrame rate                  : 23.976 (24000/1001) fps\r\nColor space                 : YUV\r\nChroma subsampling          : 4:2:0\r\nBit depth                   : 8 bits\r\nScan type                   : Progressive\r\nBits/(Pixel*Frame)          : 0.256\r\nStream size                 : 1.64 GiB (84%)\r\n\r\nAudio\r\nID                          : 2\r\nFormat                      : AC-3\r\nFormat/Info                 : Audio Coding 3\r\nMode extension              : CM (complete main)\r\nFormat settings, Endianness : Big\r\nCodec ID                    : A_AC3\r\nDuration                    : 2h 54mn\r\nBit rate mode               : Constant\r\nBit rate                    : 256 Kbps\r\nChannel(s)                  : 2 channels\r\nChannel positions           : Front: L R\r\nSampling rate               : 48.0 KHz\r\nFrame rate                  : 31.250 fps (1536 spf)\r\nCompression mode            : Lossy\r\nStream size                 : 320 MiB (16%)\r\nDefault                     : Yes\r\nForced                      : No",
  "parsed": {
    "xt": "urn:btih:2944d38d3b64ad39d21892d2ac0408080d170d88",
    "dn": "Batman V Superman Dawn of Jusitce 2016 Extended Cut Ultimate Edi",
    "tr": [
      "udp://exodus.desync.com:6969",
      "udp://open.demonii.com:1337",
      "udp://tracker.coppersurfer.tk:6969",
      "udp://tracker.leechers-paradise.org:6969",
      "udp://zer0day.ch:1337"
    ],
    "infoHash": "2944d38d3b64ad39d21892d2ac0408080d170d88",
    "infoHashBuffer": {
      "type": "Buffer",
      "data": [
        41,
        68,
        211,
        141,
        59,
        100,
        173,
        57,
        210,
        24,
        146,
        210,
        172,
        4,
        8,
        8,
        13,
        23,
        13,
        136
      ]
    },
    "name": "Batman V Superman Dawn of Jusitce 2016 Extended Cut Ultimate Edi",
    "announce": [
      "udp://exodus.desync.com:6969",
      "udp://open.demonii.com:1337",
      "udp://tracker.coppersurfer.tk:6969",
      "udp://tracker.leechers-paradise.org:6969",
      "udp://zer0day.ch:1337"
    ],
    "urlList": []
  },
  "previous": 90,
  "peers": 93,
  "last_updated": "2016-12-24T20:31:34.270Z"
}